Coordinates
version=1
nRows=9
nColumns=24
inDegrees=yes

Units are S.I. units (second, meters, Newtons, ...)
Angles are in degrees.

endheader
time	pelvis_tilt	pelvis_list	pelvis_rotation	pelvis_tx	pelvis_ty	pelvis_tz	hip_flexion_r	hip_adduction_r	hip_rotation_r	knee_angle_r	ankle_angle_r	subtalar_angle_r	mtp_angle_r	hip_flexion_l	hip_adduction_l	hip_rotation_l	knee_angle_l	ankle_angle_l	subtalar_angle_l	mtp_angle_l	lumbar_extension	lumbar_bending	lumbar_rotation
      3.14000000	     -9.77469189	      0.80212077	      8.04027844	     -1.19411165	     -0.03982416	      0.71126077	     38.06731008	     -4.95943208	      0.89781192	    -23.77676352	     -8.21153611	     -4.06711125	     22.10489523	     -8.18629979	      2.35155714	     10.67214007	    -17.49137370	      5.48437298	      5.90157351	     11.95525155	      7.60848672	      1.61605313	    -14.80250085
      3.14500000	     -9.83673320	      0.48944151	      8.20718246	     -1.18561210	     -0.04041010	      0.71085956	     38.09012713	     -4.71117477	      0.89762985	    -24.51385031	     -8.55964880	     -3.88819884	     22.92154682	     -8.04344106	      1.95968966	     10.59519397	    -18.29161049	      4.29004366	      6.17922875	     13.66990763	      7.86231657	      2.07970690	    -14.82618448
      3.15000000	     -9.85616493	      0.16032764	      8.31615889	     -1.17710164	     -0.04092382	      0.71053820	     38.11781130	     -4.39821419	      1.00541934	    -25.35242633	     -8.79047245	     -3.75555763	     23.78245270	     -7.87967904	      1.55095050	     10.40785400	    -19.19421036	      3.05683534	      6.52338570	     15.22683133	      8.06837261	      2.57987862	    -14.78132309
      3.15500000	     -9.90367992	     -0.14245952	      8.40792729	     -1.16861718	     -0.04143529	      0.71024571	     38.22525980	     -4.09389192	      1.19407609	    -26.30787294	     -8.76521193	     -3.57521437	     24.32425834	     -7.62049273	      1.18008486	     10.18301454	    -20.17734902	      1.62800769	      6.82522906	     17.01114883	      8.29666927	      3.05064882	    -14.71455874
      3.16000000	     -9.87670578	     -0.45124994	      8.47457331	     -1.16013654	     -0.04181811	      0.70999691	     38.27547993	     -3.74334542	      1.43558222	    -27.32821819	     -8.46999613	     -3.37646889	     24.32087965	     -7.37892131	      0.79075094	      9.89925739	    -21.22503669	      0.02916986	      7.12650207	     18.91788813	      8.44077828	      3.54376727	    -14.63302899
      3.16500000	     -9.93464744	     -0.72909843	      8.53774286	     -1.15172886	     -0.04226116	      0.70979891	     38.45565915	     -3.42482462	      1.60141827	    -28.42091384	     -8.04285539	     -3.30913352	     23.77469958	     -6.93886038	      0.44677091	      9.53318256	    -22.44270736	     -1.56670341	      7.51461269	     20.42458077	      8.66277689	      3.98555415	    -14.50957229
      3.17000000	     -9.87522489	     -1.03542333	      8.58131464	     -1.14333725	     -0.04248982	      0.70955203	     38.48149621	     -3.04023010	      1.81126467	    -29.48380617	     -7.41842647	     -3.17916406	     22.49525743	     -6.57917629	      0.06603022	      9.19879566	    -23.65255000	     -3.53888905	      7.67848610	     22.44322068	      8.75485972	      4.49465679	    -14.40883616
      3.17500000	     -9.95214890	     -1.32313238	      8.61355497	     -1.13496756	     -0.04286640	      0.70941813	     38.64276038	     -2.67234244	      1.97252052	    -30.51223467	     -6.80179911	     -3.27673668	     21.18547619	     -5.95714845	     -0.28837693	      8.75411200	    -25.05491894	     -5.36036158	      8.07615576	     23.77025099	      8.99420503	      4.94668594	    -14.31348804
      3.18000000	     -9.81734818	     -1.53803093	      8.65084804	     -1.12676070	     -0.04289243	      0.70916588	     38.54498600	     -2.37176918	      1.97952475	    -31.51290061	     -5.98652531	     -3.20443198	     19.07730919	     -5.54292797	     -0.56709742	      8.43078860	    -26.37583751	     -7.75882860	      8.01247061	     25.72047590	      8.95570213	      5.37460486	    -14.13131882
